<svg width="49" height="49" viewBox="0 0 49 49" fill="none" xmlns="http://www.w3.org/2000/svg">
<g clip-path="url(#clip0_10_2124)">
<path d="M5.96468 22.4664L12.055 20.3502L14.1712 26.4405C14.3893 27.0683 15.0743 27.3991 15.7011 27.1814C16.3278 26.9636 16.6601 26.2793 16.442 25.6514L14.3258 19.5612L20.4149 17.4453C21.0416 17.2276 21.3739 16.5433 21.1558 15.9154C20.9376 15.2875 20.2526 14.9568 19.6258 15.1745L13.5367 17.2904L11.4209 11.2012C11.2027 10.5734 10.5177 10.2426 9.89098 10.4603C9.26424 10.6781 8.93193 11.3624 9.1501 11.9903L11.2659 18.0794L5.17564 20.1956C4.5489 20.4134 4.21659 21.0977 4.43477 21.7255C4.65293 22.3534 5.33794 22.6842 5.96468 22.4664Z" fill="#26252A"/>
<path d="M42.5339 25.1706L28.0837 30.1917C27.4569 30.4094 27.1246 31.0937 27.3428 31.7216C27.561 32.3495 28.246 32.6802 28.8727 32.4625L43.3229 27.4414C43.9497 27.2236 44.282 26.5393 44.0638 25.9115C43.8456 25.2836 43.1606 24.9528 42.5339 25.1706Z" fill="#26252A"/>
<path d="M45.503 33.7156L31.0528 38.7366C30.4261 38.9544 30.0938 39.6387 30.3119 40.2666C30.5301 40.8944 31.2151 41.2252 31.8419 41.0074L46.2921 35.9864C46.9188 35.7686 47.2511 35.0843 47.0329 34.4565C46.8148 33.8286 46.1298 33.4978 45.503 33.7156Z" fill="#26252A"/>
<path d="M14.5009 47.033C14.7916 46.932 15.0436 46.7197 15.1881 46.4214L35.9326 3.58363C36.2223 2.98543 35.973 2.26786 35.3748 1.97818C34.7766 1.6885 34.059 1.93783 33.7693 2.53603L13.0248 45.3738C12.7351 45.972 12.9844 46.6895 13.5826 46.9792C13.881 47.1237 14.2103 47.1339 14.5009 47.033Z" fill="#26252A"/>
</g>
<defs>
<clipPath id="clip0_10_2124">
<rect width="38.4636" height="38.4636" fill="white" transform="translate(0 12.6247) rotate(-19.161)"/>
</clipPath>
</defs>
</svg>
