<svg width="149" height="113" viewBox="0 0 149 113" fill="none" xmlns="http://www.w3.org/2000/svg">
<mask id="path-1-inside-1_3_26" fill="white">
<path d="M3.32863 11.7851C0.93051 12.8243 -0.160621 15.5979 0.881836 18.0034L17.6888 56.7871C18.7313 59.1926 21.501 60.2926 23.8991 59.2533L66.1831 40.9295C68.5812 39.8902 69.6726 37.1171 68.6301 34.7116L51.8231 -4.07209C50.7807 -6.47766 48.0108 -7.57801 45.6127 -6.53878L3.32863 11.7851ZM60.0619 -12.7999C57.6638 -11.7606 56.5725 -8.98755 57.615 -6.58199L74.4219 32.2017C75.4644 34.6072 78.2341 35.7072 80.6322 34.6679L122.916 16.3441C125.314 15.3048 126.406 12.5317 125.363 10.1262L108.556 -28.6575C107.514 -31.0631 104.744 -32.163 102.346 -31.1237L60.0619 -12.7999ZM29.6041 14.4691C30.3631 14.1402 31.2221 14.1273 31.9921 14.4331C32.7621 14.7388 33.3801 15.3383 33.7101 16.0996L36.3738 22.2465L42.5012 19.5912C43.2602 19.2623 44.1192 19.2494 44.8892 19.5552C45.6592 19.861 46.2772 20.4604 46.6072 21.2218C46.9369 21.9831 46.9516 22.8439 46.6482 23.6147C46.3448 24.3855 45.748 25.0034 44.9891 25.3323L38.8618 27.9876L41.5255 34.1345C41.8554 34.8959 41.8702 35.7567 41.5668 36.5276C41.2634 37.2986 40.6666 37.9165 39.9077 38.2455C39.1486 38.5743 38.2896 38.5873 37.5196 38.2815C36.7497 37.9757 36.1317 37.3762 35.8017 36.6149L33.1379 30.4681L27.0106 33.1234C26.2516 33.4522 25.3927 33.4652 24.6228 33.1595C23.8528 32.8538 23.2349 32.2544 22.9048 31.4932C22.5749 30.7318 22.5601 29.871 22.8635 29.1001C23.1668 28.3291 23.7637 27.7112 24.5226 27.3822L30.65 24.7269L27.9863 18.5801C27.6564 17.8187 27.6415 16.9579 27.9449 16.1869C28.2483 15.416 28.8451 14.7981 29.6041 14.4691ZM81.2571 2.79624L99.2343 -4.99423C99.9933 -5.32307 100.852 -5.33602 101.622 -5.03023C102.392 -4.72445 103.01 -4.12497 103.34 -3.36364C103.67 -2.60225 103.685 -1.74142 103.382 -0.970481C103.078 -0.199541 102.481 0.418375 101.722 0.747367L83.7452 8.53783C83.3693 8.70088 82.9649 8.78806 82.5551 8.79438C82.1452 8.8007 81.738 8.72605 81.3565 8.57468C80.9751 8.42332 80.627 8.1982 80.3322 7.9122C80.0373 7.6262 79.8014 7.28491 79.6379 6.90782C79.4745 6.53071 79.3868 6.1252 79.3798 5.71446C79.3727 5.30372 79.4465 4.8958 79.5968 4.51399C79.7472 4.13218 79.9712 3.78396 80.2561 3.48923C80.5409 3.1945 80.8811 2.95901 81.2571 2.79624ZM26.4175 65.0407C24.0194 66.0799 22.9281 68.853 23.9705 71.2586L40.7775 110.042C41.82 112.448 44.5899 113.548 46.988 112.509L89.272 94.1851C91.6701 93.1458 92.7613 90.3723 91.7188 87.9667L74.9119 49.1831C73.8694 46.7775 71.0997 45.6776 68.7016 46.7168L26.4175 65.0407ZM83.1418 40.4591C80.7437 41.4984 79.6524 44.2714 80.6948 46.677L97.5018 85.4607C98.5443 87.8662 101.314 88.9666 103.712 87.9274L145.996 69.6035C148.394 68.5643 149.486 65.7907 148.443 63.3852L131.636 24.6015C130.594 22.1959 127.824 21.096 125.426 22.1353L83.1418 40.4591ZM46.0159 72.3631C46.4016 72.1992 46.8166 72.1149 47.2359 72.1153C47.6553 72.1157 48.0704 72.2008 48.4566 72.3655L56.2723 75.701L59.5837 67.8776C59.7436 67.4998 59.9763 67.1574 60.2685 66.87C60.5606 66.5826 60.9066 66.3559 61.2865 66.2027C61.6664 66.0495 62.0729 65.9728 62.4827 65.9771C62.8926 65.9814 63.2977 66.0665 63.6751 66.2277C64.0525 66.3888 64.3948 66.6227 64.6823 66.9162C64.9698 67.2096 65.1969 67.5569 65.3506 67.938C65.5044 68.3191 65.5818 68.7267 65.5784 69.1375C65.5751 69.5482 65.491 69.9541 65.331 70.3319L62.0194 78.155L69.2791 81.2543C69.6565 81.4154 69.9987 81.6494 70.2861 81.9428C70.5735 82.2363 70.8006 82.5834 70.9544 82.9645C71.1081 83.3456 71.1855 83.7531 71.1822 84.1638C71.1788 84.5745 71.0948 84.9803 70.9348 85.3581C70.7749 85.7359 70.5422 86.0783 70.25 86.3657C69.9579 86.6531 69.6119 86.8798 69.232 87.0331C68.8521 87.1863 68.4456 87.2629 68.0358 87.2586C67.6259 87.2543 67.2208 87.1692 66.8434 87.0081L59.5837 83.9087L56.2723 91.7322C56.1124 92.11 55.8797 92.4523 55.5875 92.7397C55.2953 93.0271 54.9494 93.2539 54.5695 93.4071C54.1896 93.5603 53.7831 93.6369 53.3732 93.6326C52.9634 93.6284 52.5582 93.5432 52.1809 93.3821C51.8034 93.221 51.4612 92.987 51.1737 92.6936C50.8862 92.4001 50.6591 92.0529 50.5053 91.6718C50.3516 91.2906 50.2742 90.8831 50.2775 90.4723C50.2809 90.0615 50.365 89.6556 50.525 89.2778L53.8366 81.4548L46.0222 78.1187C45.6448 77.9576 45.3026 77.7236 45.0152 77.4302C44.7278 77.1367 44.5007 76.7895 44.3469 76.4085C44.1932 76.0274 44.1158 75.6199 44.1191 75.2092C44.1225 74.7985 44.2065 74.3926 44.3665 74.0148C44.6721 73.294 45.2368 72.7151 45.949 72.3927C45.9712 72.3826 45.9935 72.3727 46.0159 72.3631ZM100.198 51.0476L121.489 41.821C122.248 41.4921 123.107 41.4792 123.877 41.785C124.647 42.0908 125.265 42.6902 125.595 43.4516C125.758 43.8286 125.846 44.2341 125.854 44.6448C125.861 45.0556 125.787 45.4635 125.637 45.8454C125.487 46.2273 125.263 46.5756 124.978 46.8705C124.694 47.1653 124.354 47.401 123.978 47.5639L102.686 56.7905C102.31 56.9533 101.906 57.0402 101.496 57.0463C101.086 57.0524 100.679 56.9775 100.298 56.826C99.9166 56.6744 99.5687 56.4491 99.2739 56.163C98.9792 55.8769 98.7435 55.5355 98.5803 55.1584C98.2504 54.3971 98.2355 53.5364 98.5388 52.7655C98.8421 51.9946 99.4388 51.3767 100.198 51.0476ZM105.161 62.5002L126.452 53.2736C127.211 52.9448 128.07 52.9318 128.84 53.2376C129.61 53.5434 130.228 54.1429 130.558 54.9042C130.888 55.6656 130.903 56.5264 130.599 57.2974C130.296 58.0683 129.699 58.6862 128.94 59.0152L107.649 68.2418C106.89 68.5705 106.031 68.5834 105.261 68.2775C104.491 67.9717 103.873 67.3723 103.543 66.611C103.213 65.8497 103.199 64.989 103.502 64.2181C103.805 63.4472 104.402 62.8293 105.161 62.5002Z"/>
</mask>
<path d="M3.32863 11.7851C0.93051 12.8243 -0.160621 15.5979 0.881836 18.0034L17.6888 56.7871C18.7313 59.1926 21.501 60.2926 23.8991 59.2533L66.1831 40.9295C68.5812 39.8902 69.6726 37.1171 68.6301 34.7116L51.8231 -4.07209C50.7807 -6.47766 48.0108 -7.57801 45.6127 -6.53878L3.32863 11.7851ZM60.0619 -12.7999C57.6638 -11.7606 56.5725 -8.98755 57.615 -6.58199L74.4219 32.2017C75.4644 34.6072 78.2341 35.7072 80.6322 34.6679L122.916 16.3441C125.314 15.3048 126.406 12.5317 125.363 10.1262L108.556 -28.6575C107.514 -31.0631 104.744 -32.163 102.346 -31.1237L60.0619 -12.7999ZM29.6041 14.4691C30.3631 14.1402 31.2221 14.1273 31.9921 14.4331C32.7621 14.7388 33.3801 15.3383 33.7101 16.0996L36.3738 22.2465L42.5012 19.5912C43.2602 19.2623 44.1192 19.2494 44.8892 19.5552C45.6592 19.861 46.2772 20.4604 46.6072 21.2218C46.9369 21.9831 46.9516 22.8439 46.6482 23.6147C46.3448 24.3855 45.748 25.0034 44.9891 25.3323L38.8618 27.9876L41.5255 34.1345C41.8554 34.8959 41.8702 35.7567 41.5668 36.5276C41.2634 37.2986 40.6666 37.9165 39.9077 38.2455C39.1486 38.5743 38.2896 38.5873 37.5196 38.2815C36.7497 37.9757 36.1317 37.3762 35.8017 36.6149L33.1379 30.4681L27.0106 33.1234C26.2516 33.4522 25.3927 33.4652 24.6228 33.1595C23.8528 32.8538 23.2349 32.2544 22.9048 31.4932C22.5749 30.7318 22.5601 29.871 22.8635 29.1001C23.1668 28.3291 23.7637 27.7112 24.5226 27.3822L30.65 24.7269L27.9863 18.5801C27.6564 17.8187 27.6415 16.9579 27.9449 16.1869C28.2483 15.416 28.8451 14.7981 29.6041 14.4691ZM81.2571 2.79624L99.2343 -4.99423C99.9933 -5.32307 100.852 -5.33602 101.622 -5.03023C102.392 -4.72445 103.01 -4.12497 103.34 -3.36364C103.67 -2.60225 103.685 -1.74142 103.382 -0.970481C103.078 -0.199541 102.481 0.418375 101.722 0.747367L83.7452 8.53783C83.3693 8.70088 82.9649 8.78806 82.5551 8.79438C82.1452 8.8007 81.738 8.72605 81.3565 8.57468C80.9751 8.42332 80.627 8.1982 80.3322 7.9122C80.0373 7.6262 79.8014 7.28491 79.6379 6.90782C79.4745 6.53071 79.3868 6.1252 79.3798 5.71446C79.3727 5.30372 79.4465 4.8958 79.5968 4.51399C79.7472 4.13218 79.9712 3.78396 80.2561 3.48923C80.5409 3.1945 80.8811 2.95901 81.2571 2.79624ZM26.4175 65.0407C24.0194 66.0799 22.9281 68.853 23.9705 71.2586L40.7775 110.042C41.82 112.448 44.5899 113.548 46.988 112.509L89.272 94.1851C91.6701 93.1458 92.7613 90.3723 91.7188 87.9667L74.9119 49.1831C73.8694 46.7775 71.0997 45.6776 68.7016 46.7168L26.4175 65.0407ZM83.1418 40.4591C80.7437 41.4984 79.6524 44.2714 80.6948 46.677L97.5018 85.4607C98.5443 87.8662 101.314 88.9666 103.712 87.9274L145.996 69.6035C148.394 68.5643 149.486 65.7907 148.443 63.3852L131.636 24.6015C130.594 22.1959 127.824 21.096 125.426 22.1353L83.1418 40.4591ZM46.0159 72.3631C46.4016 72.1992 46.8166 72.1149 47.2359 72.1153C47.6553 72.1157 48.0704 72.2008 48.4566 72.3655L56.2723 75.701L59.5837 67.8776C59.7436 67.4998 59.9763 67.1574 60.2685 66.87C60.5606 66.5826 60.9066 66.3559 61.2865 66.2027C61.6664 66.0495 62.0729 65.9728 62.4827 65.9771C62.8926 65.9814 63.2977 66.0665 63.6751 66.2277C64.0525 66.3888 64.3948 66.6227 64.6823 66.9162C64.9698 67.2096 65.1969 67.5569 65.3506 67.938C65.5044 68.3191 65.5818 68.7267 65.5784 69.1375C65.5751 69.5482 65.491 69.9541 65.331 70.3319L62.0194 78.155L69.2791 81.2543C69.6565 81.4154 69.9987 81.6494 70.2861 81.9428C70.5735 82.2363 70.8006 82.5834 70.9544 82.9645C71.1081 83.3456 71.1855 83.7531 71.1822 84.1638C71.1788 84.5745 71.0948 84.9803 70.9348 85.3581C70.7749 85.7359 70.5422 86.0783 70.25 86.3657C69.9579 86.6531 69.6119 86.8798 69.232 87.0331C68.8521 87.1863 68.4456 87.2629 68.0358 87.2586C67.6259 87.2543 67.2208 87.1692 66.8434 87.0081L59.5837 83.9087L56.2723 91.7322C56.1124 92.11 55.8797 92.4523 55.5875 92.7397C55.2953 93.0271 54.9494 93.2539 54.5695 93.4071C54.1896 93.5603 53.7831 93.6369 53.3732 93.6326C52.9634 93.6284 52.5582 93.5432 52.1809 93.3821C51.8034 93.221 51.4612 92.987 51.1737 92.6936C50.8862 92.4001 50.6591 92.0529 50.5053 91.6718C50.3516 91.2906 50.2742 90.8831 50.2775 90.4723C50.2809 90.0615 50.365 89.6556 50.525 89.2778L53.8366 81.4548L46.0222 78.1187C45.6448 77.9576 45.3026 77.7236 45.0152 77.4302C44.7278 77.1367 44.5007 76.7895 44.3469 76.4085C44.1932 76.0274 44.1158 75.6199 44.1191 75.2092C44.1225 74.7985 44.2065 74.3926 44.3665 74.0148C44.6721 73.294 45.2368 72.7151 45.949 72.3927C45.9712 72.3826 45.9935 72.3727 46.0159 72.3631ZM100.198 51.0476L121.489 41.821C122.248 41.4921 123.107 41.4792 123.877 41.785C124.647 42.0908 125.265 42.6902 125.595 43.4516C125.758 43.8286 125.846 44.2341 125.854 44.6448C125.861 45.0556 125.787 45.4635 125.637 45.8454C125.487 46.2273 125.263 46.5756 124.978 46.8705C124.694 47.1653 124.354 47.401 123.978 47.5639L102.686 56.7905C102.31 56.9533 101.906 57.0402 101.496 57.0463C101.086 57.0524 100.679 56.9775 100.298 56.826C99.9166 56.6744 99.5687 56.4491 99.2739 56.163C98.9792 55.8769 98.7435 55.5355 98.5803 55.1584C98.2504 54.3971 98.2355 53.5364 98.5388 52.7655C98.8421 51.9946 99.4388 51.3767 100.198 51.0476ZM105.161 62.5002L126.452 53.2736C127.211 52.9448 128.07 52.9318 128.84 53.2376C129.61 53.5434 130.228 54.1429 130.558 54.9042C130.888 55.6656 130.903 56.5264 130.599 57.2974C130.296 58.0683 129.699 58.6862 128.94 59.0152L107.649 68.2418C106.89 68.5705 106.031 68.5834 105.261 68.2775C104.491 67.9717 103.873 67.3723 103.543 66.611C103.213 65.8497 103.199 64.989 103.502 64.2181C103.805 63.4472 104.402 62.8293 105.161 62.5002Z" stroke="#26252A" stroke-width="2" mask="url(#path-1-inside-1_3_26)"/>
</svg>
