<svg width="20" height="20" viewBox="0 0 20 20" fill="none" xmlns="http://www.w3.org/2000/svg">
<path fill-rule="evenodd" clip-rule="evenodd" d="M1.36709 15.0471C1.6779 15.5788 2.03876 16.0833 2.44662 16.5534L3.86527 15.1347C3.46212 14.6531 3.11935 14.1283 2.84189 13.5723L1.36709 15.0471ZM4.58983 18.4102C4.07553 18.0793 3.58955 17.7 3.13907 17.2751L4.55404 15.8602C5.01042 16.2843 5.51144 16.6506 6.04563 16.9544L4.58983 18.4102ZM5.48931 18.9249C6.08553 19.2262 6.71087 19.4673 7.35588 19.6441L9.05588 17.9441C8.34645 17.8598 7.65481 17.6812 6.99859 17.4156L5.48931 18.9249ZM10 20C9.50287 20 9.00955 19.963 8.52374 19.8905L10.4255 17.9887C11.7609 17.9176 13.0493 17.5133 14.177 16.823L11.0559 19.9441C10.7067 19.9812 10.3543 20 10 20ZM12.8201 19.5941C14.4117 19.1263 15.8769 18.2653 17.0711 17.0711C18.2653 15.8769 19.1263 14.4117 19.5941 12.8201L12.8201 19.5941ZM19.9441 11.0559C19.9812 10.7067 20 10.3543 20 10C20 9.50287 19.963 9.00955 19.8905 8.52374L17.9887 10.4255C17.9176 11.7609 17.5133 13.0493 16.823 14.177L19.9441 11.0559ZM19.6441 7.35588L17.9441 9.05588C17.8598 8.34645 17.6812 7.65481 17.4156 6.99859L18.9249 5.48931C19.2262 6.08553 19.4673 6.71087 19.6441 7.35588ZM9.41421 15H11V13.4142L9.41421 15ZM12 11H11V12L9 14V11.4142L11.4142 9H14L12 11ZM13.4142 11H15V9.41421L13.4142 11ZM16.9544 6.04563L18.4102 4.58984C18.0793 4.07553 17.7 3.58955 17.2751 3.13907L15.8602 4.55404C16.2843 5.01042 16.6506 5.51144 16.9544 6.04563ZM16.5534 2.44662L15.1347 3.86527C14.6531 3.46212 14.1283 3.11935 13.5723 2.84189L15.0471 1.36709C15.5788 1.6779 16.0833 2.03876 16.5534 2.44662ZM8 11L11 8V5.41421L9 7.41421V9H7.41421L5.41421 11H8ZM6 9L5 10V9H6ZM9 6L10 5H9V6ZM12.5745 2.42555L14.1144 0.88562C13.4927 0.605015 12.8429 0.388195 12.1749 0.239333L10.404 2.0102C11.1484 2.04781 11.8785 2.18898 12.5745 2.42555ZM2.42555 12.5744L0.88562 14.1144C0.605015 13.4927 0.388194 12.8429 0.239333 12.1749L2.0102 10.404C2.04781 11.1484 2.18898 11.8785 2.42555 12.5744ZM4.34315 4.34315C5.58844 3.09785 7.20201 2.30551 8.92786 2.07214L10.9544 0.0456167C10.6385 0.0153413 10.32 0 10 0C9.41336 0 8.83203 0.0515472 8.26208 0.152133L0.152133 8.26208C0.0515472 8.83203 0 9.41336 0 10C0 10.32 0.0153413 10.6385 0.0456166 10.9544L2.07214 8.92786C2.30551 7.20201 3.09785 5.58844 4.34315 4.34315ZM6.28388 0.716118C5.03918 1.21435 3.89534 1.96253 2.92893 2.92893C1.96253 3.89534 1.21435 5.03918 0.716118 6.28388L6.28388 0.716118Z" fill="#4657EF"/>
</svg>
