<svg width="20" height="20" viewBox="0 0 20 20" fill="none" xmlns="http://www.w3.org/2000/svg">
<path fill-rule="evenodd" clip-rule="evenodd" d="M6.41422 20H9L20 9V6.41422L6.41422 20ZM5 20H2.41422L9 13.4142V15H10L5 20ZM11 14L14 11H11.4142L11 11.4142V14ZM15 10L20 5V2.41422L13.4142 9H15V10ZM17 20H14.4142L20 14.4142V17L17 20ZM18.4142 20H20V18.4142L18.4142 20ZM10.4142 20H13L20 13V10.4142L10.4142 20ZM12 9L20 1V0H18.4142L11 7.41422V9H12ZM9 12L1 20H0V18.4142L7.41422 11H9V12ZM8 9L9 8V5.41422L5.41422 9H8ZM17 0L11 6V5H9.41422L14.4142 0H17ZM0 17L6 11H5V9.41422L0 14.4142V17ZM13 0H10.4142L0 10.4142V13L13 0ZM6.41422 0H9L0 9V6.41422L6.41422 0ZM5 0H2.41422L0 2.41422V5L5 0ZM0 0H1L0 1V0Z" fill="#FF8AFA"/>
</svg>
